<svg xmlns="http://www.w3.org/2000/svg" viewBox="0 0 75.32 75.32"><defs><style>.cls-1{fill:#056564;}.cls-2{fill:none;}</style></defs><title>97Fichier 8</title><g id="Calque_2" data-name="Calque 2"><g id="Calque_1-2" data-name="Calque 1"><path class="cls-1" d="M24.22,36c-3.86,4.3-4.26,10.82,0,15.07S35,55,39.3,51.1c2.4-2.15-1.15-5.68-3.54-3.54-5.43,4.87-12.89-2.57-8-8,2.14-2.38-1.38-5.94-3.54-3.54Z"/><path class="cls-1" d="M39.56,27.76c5.43-4.87,12.89,2.57,8,8-2.14,2.38,1.38,5.94,3.54,3.54,3.86-4.3,4.26-10.82,0-15.07s-10.77-3.86-15.07,0c-2.4,2.15,1.15,5.68,3.54,3.54Z"/><path class="cls-1" d="M36.91,41.95l5.85-5.85c2.27-2.27-1.26-5.81-3.54-3.54l-5.85,5.85c-2.27,2.27,1.26,5.81,3.54,3.54Z"/><rect class="cls-2" width="75.32" height="75.32"/></g></g></svg>